<svg width="400" height="400" viewBox="0 0 400 400" xmlns="http://www.w3.org/2000/svg">
  <!-- Background -->
  <rect width="400" height="400" fill="#f7f5f0"/>
  
  <!-- Surface shadow -->
  <ellipse cx="200" cy="385" rx="100" ry="15" fill="#000" opacity="0.1"/>
  
  <!-- Alternative view - jewelry box open -->
  <g transform="translate(200, 220)">
    <!-- Box base shadow -->
    <ellipse cx="0" cy="50" rx="75" ry="15" fill="#000" opacity="0.25"/>
    
    <!-- Lower box compartment -->
    <rect x="-70" y="20" width="140" height="40" fill="#8B4513" rx="3"/>
    
    <!-- Open lid (angled view) -->
    <g transform="rotate(-25) translate(0, -40)">
      <path d="M-75 0 Q-75 -25, -70 -30 L70 -30 Q75 -25, 75 0 Q70 5, -70 5 Q-75 0, -75 0" 
            fill="#A0522D"/>
      
      <!-- Lid interior (velvet) -->
      <rect x="-68" y="-25" width="136" height="28" fill="#800080" opacity="0.7" rx="2"/>
      
      <!-- Mirror in lid -->
      <rect x="-50" y="-20" width="100" height="15" fill="#E6E6FA" stroke="#C0C0C0" stroke-width="1" rx="1"/>
      <rect x="-45" y="-18" width="90" height="11" fill="#F0F8FF" opacity="0.8"/>
    </g>
    
    <!-- Velvet compartments -->
    <rect x="-65" y="25" width="130" height="30" fill="#4B0082" opacity="0.8" rx="2"/>
    
    <!-- Individual jewelry compartments -->
    <g stroke="#800080" stroke-width="1" fill="none">
      <rect x="-60" y="30" width="25" height="20" rx="1"/>
      <rect x="-30" y="30" width="25" height="20" rx="1"/>
      <rect x="0" y="30" width="25" height="20" rx="1"/>
      <rect x="30" y="30" width="25" height="20" rx="1"/>
    </g>
    
    <!-- Sample jewelry pieces inside -->
    <g fill="#DAA520" opacity="0.9">
      <!-- Ring -->
      <circle cx="-47" cy="40" r="4"/>
      <circle cx="-47" cy="40" r="2" fill="#8B4513"/>
      
      <!-- Earrings -->
      <circle cx="-17" cy="38" r="2"/>
      <circle cx="-12" cy="38" r="2"/>
      <line x1="-17" y1="40" x2="-17" y2="45" stroke="#DAA520" stroke-width="1"/>
      <line x1="-12" y1="40" x2="-12" y2="45" stroke="#DAA520" stroke-width="1"/>
      
      <!-- Necklace -->
      <path d="M8 35 Q12 32, 16 35 Q20 38, 16 42 Q12 45, 8 42 Q4 38, 8 35" fill="#C0C0C0"/>
      <circle cx="12" cy="38" r="1" fill="#DAA520"/>
      
      <!-- Bracelet -->
      <ellipse cx="42" cy="40" rx="8" ry="3" fill="none" stroke="#8B4513" stroke-width="2"/>
    </g>
    
    <!-- Wood grain detail -->
    <g stroke="#654321" stroke-width="0.8" fill="none" opacity="0.4">
      <line x1="-65" y1="25" x2="65" y2="27"/>
      <line x1="-63" y1="35" x2="63" y2="37"/>
      <line x1="-61" y1="45" x2="61" y2="47"/>
      <line x1="-59" y1="55" x2="59" y2="57"/>
    </g>
    
    <!-- Carved details on visible edges -->
    <g stroke="#D2691E" stroke-width="1.5" fill="none" opacity="0.7">
      <!-- Front edge carving -->
      <path d="M-65 60 Q-60 58, -55 60 Q-50 62, -45 60 Q-40 58, -35 60"/>
      <path d="M-25 60 Q-20 58, -15 60 Q-10 62, -5 60 Q0 58, 5 60"/>
      <path d="M15 60 Q20 58, 25 60 Q30 62, 35 60 Q40 58, 45 60"/>
      <path d="M55 60 Q60 58, 65 60"/>
      
      <!-- Side edge details -->
      <path d="M-70 25 Q-68 30, -70 35 Q-68 40, -70 45 Q-68 50, -70 55"/>
      <path d="M70 25 Q68 30, 70 35 Q68 40, 70 45 Q68 50, 70 55"/>
    </g>
    
    <!-- Brass hardware -->
    <g fill="#B8860B">
      <!-- Hinges -->
      <rect x="-60" y="18" width="6" height="8" rx="1"/>
      <rect x="54" y="18" width="6" height="8" rx="1"/>
      
      <!-- Corner reinforcements -->
      <polygon points="-68,22 -65,25 -68,28 -71,25"/>
      <polygon points="68,22 65,25 68,28 71,25"/>
      <polygon points="-68,52 -65,55 -68,58 -71,55"/>
      <polygon points="68,52 65,55 68,58 71,55"/>
    </g>
    
    <!-- Woodworker's signature detail -->
    <g transform="translate(50, 50)">
      <circle cx="0" cy="0" r="8" fill="#8B4513" opacity="0.3"/>
      <text x="0" y="3" font-family="serif" font-size="6" text-anchor="middle" fill="#654321">Handmade</text>
    </g>
    
    <!-- Light reflection on wood -->
    <g fill="#CD853F" opacity="0.5">
      <ellipse cx="-40" cy="35" rx="12" ry="4" transform="rotate(-5)"/>
      <ellipse cx="20" cy="40" rx="10" ry="3" transform="rotate(10)"/>
      <ellipse cx="-20" cy="50" rx="8" ry="2"/>
    </g>
  </g>
  
  <!-- Tool marks indication -->
  <g transform="translate(80, 100)" fill="#8B4513" opacity="0.2">
    <rect x="0" y="0" width="3" height="20" rx="1"/>
    <rect x="5" y="0" width="2" height="15" rx="1"/>
    <circle cx="10" cy="5" r="2"/>
  </g>
</svg>