<svg width="400" height="400" viewBox="0 0 400 400" xmlns="http://www.w3.org/2000/svg">
  <!-- Background -->
  <rect width="400" height="400" fill="#f9f7f4"/>
  
  <!-- Surface shadow -->
  <ellipse cx="200" cy="380" rx="110" ry="18" fill="#000" opacity="0.12"/>
  
  <!-- Carved wooden jewelry box -->
  <g transform="translate(200, 200)">
    <!-- Box shadow -->
    <ellipse cx="0" cy="70" rx="90" ry="20" fill="#000" opacity="0.2"/>
    
    <!-- Main box body -->
    <rect x="-80" y="20" width="160" height="50" fill="#8B4513" rx="5"/>
    
    <!-- Box lid -->
    <path d="M-85 20 Q-85 -10, -80 -15 L80 -15 Q85 -10, 85 20 Q80 15, -80 15 Q-85 10, -85 20" 
          fill="#A0522D"/>
    
    <!-- Wood grain texture -->
    <g stroke="#654321" stroke-width="1" fill="none" opacity="0.4">
      <!-- Horizontal grain lines -->
      <line x1="-75" y1="-10" x2="75" y2="-8"/>
      <line x1="-78" y1="0" x2="78" y2="2"/>
      <line x1="-76" y1="10" x2="76" y2="12"/>
      <line x1="-74" y1="30" x2="74" y2="32"/>
      <line x1="-72" y1="45" x2="72" y2="47"/>
      <line x1="-70" y1="60" x2="70" y2="62"/>
      
      <!-- Vertical grain variations -->
      <line x1="-60" y1="-12" x2="-58" y2="65"/>
      <line x1="-20" y1="-15" x2="-18" y2="68"/>
      <line x1="20" y1="-12" x2="22" y2="65"/>
      <line x1="60" y1="-10" x2="62" y2="67"/>
    </g>
    
    <!-- Intricate floral carving on lid -->
    <g stroke="#D2691E" stroke-width="2" fill="#DAA520" opacity="0.8">
      <!-- Central rose -->
      <circle cx="0" cy="0" r="12"/>
      <path d="M-8 -2 Q0 -12, 8 -2 Q12 6, 4 10 Q0 12, -4 10 Q-12 6, -8 -2"/>
      
      <!-- Petals -->
      <path d="M-12 0 Q-18 -5, -15 -12 Q-8 -15, 0 -8"/>
      <path d="M12 0 Q18 -5, 15 -12 Q8 -15, 0 -8"/>
      <path d="M-8 12 Q-15 18, -12 25 Q-5 28, 0 20"/>
      <path d="M8 12 Q15 18, 12 25 Q5 28, 0 20"/>
      
      <!-- Leaves -->
      <path d="M-25 -5 Q-30 -10, -25 -15 Q-15 -12, -10 -5"/>
      <path d="M25 -5 Q30 -10, 25 -15 Q15 -12, 10 -5"/>
      <path d="M-15 15 Q-20 20, -15 25 Q-5 22, 0 15"/>
      <path d="M15 15 Q20 20, 15 25 Q5 22, 0 15"/>
      
      <!-- Vine details -->
      <path d="M-35 5 Q-25 0, -15 5" stroke-width="1"/>
      <path d="M15 5 Q25 0, 35 5" stroke-width="1"/>
      <path d="M-5 -20 Q0 -25, 5 -20" stroke-width="1"/>
    </g>
    
    <!-- Box hinges -->
    <g fill="#B8860B">
      <rect x="-70" y="15" width="8" height="10" rx="1"/>
      <rect x="62" y="15" width="8" height="10" rx="1"/>
      <circle cx="-66" cy="20" r="1.5" fill="#DAA520"/>
      <circle cx="66" cy="20" r="1.5" fill="#DAA520"/>
    </g>
    
    <!-- Decorative brass corners -->
    <g fill="#DAA520" opacity="0.9">
      <path d="M-80 -12 L-75 -15 L-78 -10 L-80 -8 Z"/>
      <path d="M80 -12 L75 -15 L78 -10 L80 -8 Z"/>
      <path d="M-80 65 L-75 68 L-78 63 L-80 65 Z"/>
      <path d="M80 65 L75 68 L78 63 L80 65 Z"/>
    </g>
    
    <!-- Velvet lining visible inside -->
    <rect x="-75" y="25" width="150" height="40" fill="#800080" opacity="0.6" rx="2"/>
    <rect x="-70" y="30" width="140" height="30" fill="#9932CC" opacity="0.4" rx="1"/>
    
    <!-- Compartment dividers -->
    <g stroke="#800080" stroke-width="1" opacity="0.7">
      <line x1="-25" y1="30" x2="-25" y2="60"/>
      <line x1="25" y1="30" x2="25" y2="60"/>
      <line x1="-70" y1="45" x2="70" y2="45"/>
    </g>
    
    <!-- Wood highlights and depth -->
    <g fill="#CD853F" opacity="0.6">
      <ellipse cx="-50" cy="-5" rx="15" ry="8" transform="rotate(-10)"/>
      <ellipse cx="30" cy="5" rx="12" ry="6" transform="rotate(15)"/>
      <ellipse cx="-30" cy="40" rx="10" ry="5"/>
      <ellipse cx="40" cy="50" rx="8" ry="4"/>
    </g>
    
    <!-- Brass lock mechanism -->
    <g transform="translate(0, 35)">
      <rect x="-8" y="-5" width="16" height="10" fill="#DAA520" rx="2"/>
      <circle cx="0" cy="0" r="3" fill="#B8860B"/>
      <rect x="-1" y="-2" width="2" height="4" fill="#8B7D6B"/>
    </g>
  </g>
  
  <!-- Artisan maker's mark -->
  <g transform="translate(320, 350)">
    <circle cx="0" cy="0" r="15" fill="#8B4513" opacity="0.3"/>
    <text x="0" y="4" font-family="serif" font-size="10" text-anchor="middle" fill="#654321">CW</text>
  </g>
</svg>