<svg viewBox="0 0 400 400" xmlns="http://www.w3.org/2000/svg">
  <defs>
    <radialGradient id="goldGrad" cx="50%" cy="30%" r="50%">
      <stop offset="0%" style="stop-color:#FFD700;stop-opacity:1" />
      <stop offset="100%" style="stop-color:#B8860B;stop-opacity:1" />
    </radialGradient>
    <radialGradient id="gemGrad" cx="50%" cy="30%" r="50%">
      <stop offset="0%" style="stop-color:#4169E1;stop-opacity:0.9" />
      <stop offset="100%" style="stop-color:#000080;stop-opacity:1" />
    </radialGradient>
    <linearGradient id="bgGrad" x1="0%" y1="0%" x2="100%" y2="100%">
      <stop offset="0%" style="stop-color:#f8f9fa;stop-opacity:1" />
      <stop offset="100%" style="stop-color:#e9ecef;stop-opacity:1" />
    </linearGradient>
  </defs>
  
  <!-- Background -->
  <rect width="400" height="400" fill="url(#bgGrad)"/>
  
  <!-- Shadow -->
  <ellipse cx="200" cy="350" rx="120" ry="20" fill="#00000020"/>
  
  <!-- Chain -->
  <path d="M 80 180 Q 200 120 320 180" stroke="url(#goldGrad)" stroke-width="8" fill="none"/>
  <path d="M 90 190 Q 200 130 310 190" stroke="url(#goldGrad)" stroke-width="6" fill="none"/>
  
  <!-- Pendant -->
  <ellipse cx="200" cy="220" rx="40" ry="50" fill="url(#goldGrad)" stroke="#B8860B" stroke-width="2"/>
  
  <!-- Gemstone -->
  <ellipse cx="200" cy="210" rx="25" ry="30" fill="url(#gemGrad)"/>
  
  <!-- Highlights -->
  <ellipse cx="190" cy="200" rx="8" ry="10" fill="#87CEEB" opacity="0.7"/>
  <ellipse cx="210" cy="225" rx="5" ry="6" fill="#ADD8E6" opacity="0.5"/>
  
  <!-- Chain links -->
  <circle cx="120" cy="165" r="4" fill="url(#goldGrad)"/>
  <circle cx="140" cy="160" r="4" fill="url(#goldGrad)"/>
  <circle cx="160" cy="157" r="4" fill="url(#goldGrad)"/>
  <circle cx="180" cy="155" r="4" fill="url(#goldGrad)"/>
  <circle cx="220" cy="155" r="4" fill="url(#goldGrad)"/>
  <circle cx="240" cy="157" r="4" fill="url(#goldGrad)"/>
  <circle cx="260" cy="160" r="4" fill="url(#goldGrad)"/>
  <circle cx="280" cy="165" r="4" fill="url(#goldGrad)"/>
</svg>