<svg viewBox="0 0 400 400" xmlns="http://www.w3.org/2000/svg">
  <defs>
    <linearGradient id="scarfGrad" x1="0%" y1="0%" x2="100%" y2="100%">
      <stop offset="0%" style="stop-color:#8B0000;stop-opacity:1" />
      <stop offset="25%" style="stop-color:#DC143C;stop-opacity:1" />
      <stop offset="50%" style="stop-color:#B22222;stop-opacity:1" />
      <stop offset="75%" style="stop-color:#CD5C5C;stop-opacity:1" />
      <stop offset="100%" style="stop-color:#F08080;stop-opacity:1" />
    </linearGradient>
    <pattern id="weavePattern" x="0" y="0" width="20" height="20" patternUnits="userSpaceOnUse">
      <rect width="20" height="20" fill="url(#scarfGrad)"/>
      <path d="M 0 10 L 20 10" stroke="#8B0000" stroke-width="1" opacity="0.3"/>
      <path d="M 10 0 L 10 20" stroke="#8B0000" stroke-width="1" opacity="0.3"/>
    </pattern>
    <linearGradient id="bgGrad" x1="0%" y1="0%" x2="100%" y2="100%">
      <stop offset="0%" style="stop-color:#f8f9fa;stop-opacity:1" />
      <stop offset="100%" style="stop-color:#e9ecef;stop-opacity:1" />
    </linearGradient>
  </defs>
  
  <!-- Background -->
  <rect width="400" height="400" fill="url(#bgGrad)"/>
  
  <!-- Shadow -->
  <ellipse cx="200" cy="380" rx="150" ry="15" fill="#00000020"/>
  
  <!-- Scarf body with flowing shape -->
  <path d="M 80 120 Q 120 100 160 110 Q 200 120 240 110 Q 280 100 320 120 Q 310 140 300 160 Q 290 180 280 200 Q 270 220 260 240 Q 250 260 240 280 Q 230 300 220 320 Q 210 340 200 360 Q 190 340 180 320 Q 170 300 160 280 Q 150 260 140 240 Q 130 220 120 200 Q 110 180 100 160 Q 90 140 80 120 Z" fill="url(#weavePattern)"/>
  
  <!-- Fringe details -->
  <g opacity="0.8">
    <line x1="85" y1="125" x2="90" y2="140" stroke="#8B0000" stroke-width="2"/>
    <line x1="95" y1="123" x2="100" y2="138" stroke="#8B0000" stroke-width="2"/>
    <line x1="105" y1="125" x2="110" y2="140" stroke="#8B0000" stroke-width="2"/>
    <line x1="115" y1="123" x2="120" y2="138" stroke="#8B0000" stroke-width="2"/>
    
    <line x1="285" y1="123" x2="290" y2="138" stroke="#8B0000" stroke-width="2"/>
    <line x1="295" y1="125" x2="300" y2="140" stroke="#8B0000" stroke-width="2"/>
    <line x1="305" y1="123" x2="310" y2="138" stroke="#8B0000" stroke-width="2"/>
    <line x1="315" y1="125" x2="320" y2="140" stroke="#8B0000" stroke-width="2"/>
  </g>
  
  <!-- Texture lines to show weave -->
  <g opacity="0.4">
    <path d="M 100 150 Q 200 140 300 150" stroke="#8B0000" stroke-width="1"/>
    <path d="M 105 170 Q 200 160 295 170" stroke="#8B0000" stroke-width="1"/>
    <path d="M 110 190 Q 200 180 290 190" stroke="#8B0000" stroke-width="1"/>
    <path d="M 115 210 Q 200 200 285 210" stroke="#8B0000" stroke-width="1"/>
    <path d="M 120 230 Q 200 220 280 230" stroke="#8B0000" stroke-width="1"/>
  </g>
  
  <!-- Highlight to show fabric texture -->
  <ellipse cx="180" cy="180" rx="40" ry="60" fill="#FFFFFF" opacity="0.1"/>
</svg>